<svg xmlns="http://www.w3.org/2000/svg" width="950" height="950" viewBox="100 5600 9500 9500">
    <g fill="#ffffff">
        <rect x="100" y="5600" width="9500" height="9500"></rect>
    </g>
    <g fill="oklch(0.55 0.085 191.85)">
        <path d="M 4732 14119 C 4646 14104 4540 14065 4461 14019 C 4402 13985 4320 13910 4023 13621 C 3823 13425 3582 13191 3487 13101 C 3392 13011 3212 12836 3085 12711 C 2959 12587 2763 12395 2650 12285 C 2196 11843 2075 11723 2037 11676 C 1989 11614 1949 11536 1920 11445 L 1897 11375 L 1899 9442 C 1901 7600 1902 7506 1920 7456 C 1956 7349 2046 7243 2139 7196 C 2247 7141 2257 7140 2866 7140 L 3427 7140 L 3541 7043 C 3604 6990 3696 6910 3745 6866 C 3795 6821 3896 6733 3969 6670 C 4043 6607 4178 6490 4269 6410 C 4485 6222 4505 6206 4581 6171 C 4669 6129 4736 6117 4864 6122 C 4990 6127 5054 6146 5141 6203 C 5171 6222 5312 6341 5456 6467 C 5599 6592 5806 6772 5915 6865 C 6024 6959 6140 7059 6174 7088 L 6235 7140 L 6810 7140 C 7340 7140 7391 7141 7452 7159 C 7537 7182 7621 7232 7672 7290 C 7713 7336 7771 7441 7785 7495 C 7796 7535 7791 11309 7780 11374 C 7769 11442 7745 11512 7707 11585 C 7682 11633 7622 11699 7410 11910 C 7264 12056 7073 12245 6985 12330 C 6897 12414 6717 12590 6585 12720 C 6353 12948 5685 13599 5430 13846 C 5263 14007 5192 14054 5045 14099 C 4964 14124 4813 14134 4732 14119 Z M 4943 13849 C 4966 13843 5002 13824 5023 13806 L 5062 13773 L 5017 13685 L 4973 13596 L 4907 13722 C 4870 13791 4840 13850 4840 13854 C 4840 13864 4897 13861 4943 13849 Z M 4645 13549 C 4806 13220 4870 12992 4855 12800 C 4849 12724 4840 12701 4818 12700 C 4784 12699 4584 13014 4522 13166 C 4486 13253 4454 13352 4435 13435 C 4423 13486 4422 13505 4431 13523 C 4455 13567 4562 13690 4572 13684 C 4577 13681 4610 13620 4645 13549 Z M 5390 13458 C 5479 13368 5481 13363 5459 13244 C 5430 13081 5336 12885 5212 12732 C 5152 12659 5150 12665 5149 12940 L 5147 13185 L 5180 13280 C 5216 13386 5288 13540 5301 13540 C 5306 13540 5346 13503 5390 13458 Z M 4157 13210 C 4202 13053 4321 12819 4449 12637 L 4510 12549 L 4489 12509 C 4478 12487 4456 12420 4441 12362 C 4417 12269 4410 12254 4389 12248 C 4376 12244 4320 12230 4264 12216 C 4046 12163 3763 12035 3520 11880 C 3512 11875 3485 11858 3460 11843 C 3393 11802 3275 11716 3223 11670 C 3198 11648 3173 11630 3169 11630 C 3164 11630 3105 11653 3037 11681 C 2970 11709 2875 11749 2825 11770 C 2776 11790 2712 11815 2683 11825 L 2631 11844 L 2778 11984 C 2858 12062 3035 12233 3170 12366 C 3305 12498 3525 12712 3660 12842 C 3795 12972 3955 13128 4015 13188 C 4076 13248 4127 13296 4129 13294 C 4132 13291 4144 13254 4157 13210 Z M 6200 12672 C 6876 12009 6920 11966 6920 11960 C 6920 11956 6858 11927 6783 11896 C 6707 11864 6576 11809 6491 11773 L 6336 11708 L 6291 11761 C 6202 11867 6049 12002 5931 12079 C 5831 12143 5642 12236 5544 12269 L 5455 12299 L 5447 12394 L 5438 12489 L 5484 12548 C 5587 12683 5698 12889 5741 13027 C 5754 13067 5766 13097 5769 13094 C 5772 13091 5966 12901 6200 12672 Z M 5077 12394 C 5127 12388 5137 12374 5146 12297 C 5157 12205 5150 12194 5078 12182 C 4995 12168 4743 12157 4737 12167 C 4729 12180 4777 12361 4793 12377 C 4801 12386 4839 12395 4881 12399 C 4953 12406 4988 12405 5077 12394 Z M 5522 11935 C 5695 11858 5857 11745 5998 11602 L 6080 11518 L 6033 11451 C 5957 11343 5852 11204 5838 11192 C 5821 11178 5808 11194 5604 11475 C 5455 11680 5320 11882 5320 11901 C 5320 11906 5332 11916 5348 11924 C 5363 11932 5384 11947 5394 11959 C 5405 11971 5415 11980 5416 11980 C 5418 11980 5465 11960 5522 11935 Z M 4493 11852 C 4478 11831 4421 11759 4365 11690 C 4281 11585 4145 11406 3903 11080 C 3880 11050 3849 11009 3832 10990 C 3806 10959 3801 10957 3785 10970 C 3760 10991 3603 11174 3549 11245 C 3524 11278 3487 11327 3467 11354 C 3446 11381 3431 11406 3432 11410 C 3434 11414 3460 11438 3490 11462 C 3708 11637 4118 11845 4379 11913 L 4472 11937 L 4496 11913 L 4521 11888 L 4493 11852 Z M 5031 11818 C 5096 11704 5177 11576 5210 11535 C 5227 11514 5239 11496 5237 11494 C 5236 11492 5205 11498 5170 11506 C 5097 11523 4939 11521 4783 11500 C 4703 11489 4539 11405 4520 11412 C 4514 11414 4575 11496 4657 11595 C 4738 11694 4822 11799 4843 11827 C 4879 11877 4883 11879 4933 11883 C 4962 11885 4986 11887 4987 11888 C 4988 11889 5008 11857 5031 11818 Z M 7392 11563 C 7453 11494 7488 11434 7506 11368 C 7526 11291 7527 7586 7507 7537 C 7487 7490 7443 7442 7396 7417 C 7356 7395 7348 7395 6876 7392 C 6612 7391 6393 7393 6390 7397 C 6386 7401 6390 7459 6400 7525 C 6420 7664 6431 7751 6462 8022 L 6484 8219 L 6655 8286 C 7216 8508 7220 8510 7265 8563 C 7349 8661 7300 8811 7173 8841 C 7128 8852 6817 8895 6714 8905 C 6674 8909 6637 8916 6630 8920 C 6622 8925 6627 8944 6650 8991 C 6694 9077 6709 9122 6726 9215 C 6769 9455 6700 9735 6553 9918 C 6534 9941 6520 9964 6522 9970 C 6524 9975 6661 10115 6826 10282 C 7144 10603 7150 10610 7136 10685 C 7132 10706 7116 10730 7094 10749 C 7065 10775 7051 10780 7008 10780 L 6956 10780 L 6641 10468 C 6467 10296 6322 10150 6317 10143 C 6311 10134 6299 10136 6266 10152 C 6226 10171 6222 10177 6211 10229 C 6176 10390 6089 10640 6010 10802 L 5978 10869 L 6112 11037 C 6185 11129 6276 11246 6313 11296 C 6379 11385 6385 11389 6458 11420 C 6501 11438 6594 11478 6665 11511 C 6737 11543 6887 11610 7000 11659 L 7205 11748 L 7275 11682 C 7313 11646 7366 11592 7392 11563 Z M 2508 11569 C 2589 11536 2738 11475 2840 11433 C 3109 11323 3100 11328 3177 11225 C 3261 11112 3565 10748 3619 10695 C 3642 10674 3660 10651 3660 10645 C 3660 10638 3641 10595 3619 10549 C 3566 10440 3536 10362 3495 10221 L 3462 10107 L 3409 10093 C 3340 10075 3267 10038 3209 9989 C 3153 9942 3067 9814 3039 9735 C 2993 9605 2988 9286 3029 9163 C 3060 9070 3087 9022 3137 8973 C 3162 8949 3181 8928 3179 8926 C 3177 8925 3119 8918 3050 8911 C 2844 8891 2598 8860 2550 8849 C 2525 8842 2489 8827 2469 8814 C 2356 8738 2368 8572 2490 8510 C 2525 8492 2804 8380 3070 8277 C 3128 8255 3181 8232 3188 8227 C 3194 8222 3200 8201 3200 8182 C 3200 8162 3204 8110 3210 8066 C 3218 7995 3266 7562 3278 7442 L 3282 7400 L 2959 7397 C 2345 7393 2340 7393 2295 7417 C 2244 7444 2204 7484 2176 7535 L 2155 7575 L 2152 9405 C 2150 10640 2153 11257 2160 11303 C 2173 11391 2213 11468 2292 11557 C 2326 11597 2356 11630 2358 11630 C 2360 11630 2428 11603 2508 11569 Z M 5115 11270 C 5303 11239 5530 11072 5672 10860 C 5779 10699 5911 10394 5922 10282 L 5925 10249 L 5825 10246 C 5699 10241 5569 10209 5453 10153 L 5402 10128 L 5348 10181 C 5285 10245 5224 10270 5133 10270 C 5066 10270 4989 10246 4946 10212 C 4916 10189 4923 10180 4986 10162 C 5038 10147 5134 10084 5184 10032 L 5223 9991 L 5171 9924 C 5106 9839 5057 9739 5028 9630 C 4995 9508 4995 9271 5028 9157 C 5040 9115 5050 9076 5050 9071 C 5050 9067 4954 9063 4838 9062 C 4721 9061 4544 9056 4445 9050 C 4346 9045 4184 9035 4085 9030 C 3986 9024 3881 9017 3851 9014 L 3798 9008 L 3803 9057 C 3806 9083 3812 9130 3815 9161 C 3824 9228 3806 9271 3757 9300 C 3691 9341 3627 9320 3563 9238 C 3504 9161 3441 9120 3382 9120 C 3284 9120 3261 9167 3260 9360 C 3260 9719 3346 9847 3601 9866 L 3700 9873 L 3700 9904 C 3700 9921 3707 9971 3714 10015 C 3775 10352 3904 10591 4174 10868 C 4303 11000 4413 11079 4583 11160 C 4724 11228 4818 11256 4945 11268 C 4995 11273 5040 11278 5045 11279 C 5051 11279 5082 11275 5115 11270 Z M 6009 9974 C 6204 9926 6379 9763 6444 9570 C 6499 9405 6488 9252 6411 9095 C 6355 8982 6245 8875 6128 8820 C 6019 8769 5895 8750 5787 8768 C 5638 8794 5553 8837 5444 8945 C 5325 9063 5272 9182 5263 9350 C 5251 9574 5348 9775 5523 9889 C 5586 9930 5672 9966 5740 9980 C 5804 9994 5942 9990 6009 9974 Z M 5264 8691 C 5389 8585 5545 8510 5695 8483 C 5818 8462 6035 8470 6138 8499 C 6237 8528 6321 8567 6403 8624 L 6471 8671 L 6648 8655 C 6745 8647 6836 8640 6850 8640 C 6878 8640 6873 8637 6610 8528 C 6525 8492 6406 8442 6345 8415 C 6236 8368 6234 8367 6085 8359 C 5851 8344 4227 8337 3855 8348 L 3524 8358 L 3360 8425 C 3270 8461 3178 8499 3156 8509 C 3133 8519 3062 8549 2997 8576 C 2903 8615 2883 8626 2902 8631 C 2923 8636 2975 8642 3285 8670 C 3542 8694 3863 8714 4215 8730 C 4554 8745 4572 8746 4900 8748 L 5195 8750 L 5264 8691 Z M 5005 7985 C 5385 7985 5795 7989 5918 7993 L 6140 8001 L 6140 7963 C 6140 7942 6136 7898 6131 7865 C 6126 7832 6112 7718 6099 7612 L 6076 7419 L 5860 7236 C 5742 7136 5614 7027 5575 6994 C 5537 6962 5453 6890 5390 6835 C 5327 6780 5229 6694 5172 6645 C 4987 6484 4956 6460 4902 6440 C 4839 6416 4828 6416 4763 6435 C 4705 6452 4650 6492 4529 6601 C 4394 6724 4276 6829 3975 7090 C 3941 7120 3843 7204 3758 7277 L 3603 7409 L 3592 7477 C 3586 7514 3576 7588 3570 7640 C 3564 7692 3552 7785 3544 7845 C 3536 7906 3530 7965 3530 7978 L 3530 8001 L 3923 7993 C 4138 7989 4626 7985 5005 7985 Z"></path>
        <path d="M4892 10699 c-84 -10 -128 -28 -166 -68 -32 -34 -31 -61 4 -78 61 -28 500 -7 500 25 0 20 -69 79 -120 104 -52 25 -116 30 -218 17z"></path>
        <path d="M4413 9511 c-41 -26 -56 -55 -55 -109 0 -54 37 -97 94 -112 112 -31 196 108 120 199 -23 28 -36 34 -77 38 -38 3 -58 -1 -82 -16z"></path>
        <path d="M4827 7605 c-66 -14 -173 -65 -264 -125 -56 -37 -63 -45 -63 -75 l0 -33 191 6 c181 5 271 -2 364 -28 100 -27 215 -66 245 -82 19 -10 49 -18 67 -18 31 0 33 2 33 35 0 76 -119 248 -201 290 -85 45 -247 58 -372 30z"></path>
    </g>
    <g fill="oklch(0.84 0.0724 189.26)">
        <path d="M4820 13894 c-8 -3 -21 -7 -28 -10 -9 -3 15 -59 78 -181 51 -98 96 -182 101 -187 5 -5 12 1 17 15 6 13 35 76 67 139 l56 115 -48 42 c-26 23 -66 46 -88 52 -55 14 -137 22 -155 15z"></path>
        <path d="M4005 13239 c-71 -72 -240 -237 -375 -367 -135 -130 -400 -388 -590 -573 -190 -185 -376 -365 -413 -399 -37 -35 -64 -66 -60 -70 4 -4 37 -17 73 -30 36 -13 94 -35 130 -50 36 -15 143 -60 238 -99 l174 -72 55 48 c63 55 186 145 253 186 25 15 52 32 60 37 243 155 526 283 744 336 56 14 112 28 125 32 21 6 28 21 52 112 15 58 39 130 53 160 27 58 32 85 16 95 -16 10 -120 165 -180 270 -78 135 -145 288 -176 398 -34 121 -32 117 -41 117 -4 -1 -66 -60 -138 -131z"></path>
        <path d="M5735 13143 c-37 -167 -157 -406 -287 -571 l-49 -63 10 -92 c6 -51 12 -105 14 -120 2 -26 9 -30 91 -58 98 -33 287 -126 387 -190 118 -77 268 -209 364 -321 l57 -67 46 19 c26 10 110 45 187 77 77 33 209 88 293 124 l153 64 -173 170 c-95 94 -279 273 -408 399 -129 126 -327 320 -440 431 -250 245 -237 235 -245 198z"></path>
        <path d="M5370 11994 c-14 -14 -42 -35 -62 -45 -21 -11 -38 -24 -38 -30 0 -36 106 -202 304 -474 197 -271 238 -323 252 -324 13 -1 113 125 224 282 l82 117 -47 53 c-150 166 -341 306 -531 391 -137 60 -154 63 -184 30z"></path>
        <path d="M4366 11949 c-296 -80 -687 -279 -923 -471 -40 -33 -73 -61 -73 -64 0 -2 22 -33 48 -67 27 -34 71 -91 97 -127 50 -66 140 -172 227 -269 29 -32 54 -51 62 -48 21 8 105 114 326 410 110 148 237 314 283 370 46 56 103 128 127 161 42 55 43 59 24 69 -10 6 -31 23 -46 39 -14 15 -30 28 -35 27 -4 -1 -57 -14 -117 -30z"></path>
        <path d="M5763 9736 c-166 -54 -282 -213 -283 -388 -1 -209 206 -398 409 -374 47 6 141 47 141 62 0 11 -68 44 -92 44 -17 0 -35 11 -53 32 -23 27 -26 38 -20 72 12 79 121 156 198 142 27 -5 38 -14 51 -44 31 -68 75 -77 95 -20 16 44 13 155 -4 212 -32 104 -120 207 -211 247 -61 26 -176 33 -231 15z"></path>
        <path d="M4500 8773 c-600 -20 -1328 -71 -1658 -115 -66 -9 -80 -14 -70 -23 7 -7 85 -43 173 -80 88 -36 174 -73 190 -80 17 -7 102 -43 190 -78 153 -62 165 -66 265 -71 226 -12 553 -17 1240 -17 693 0 892 3 1260 21 l175 8 205 87 c195 82 357 151 427 182 33 15 51 42 33 53 -5 3 -112 14 -238 24 -125 10 -230 20 -234 22 -4 3 -35 -16 -69 -41 -135 -99 -289 -153 -464 -162 -234 -12 -447 62 -631 218 l-69 59 -325 -2 c-179 -1 -359 -3 -400 -5z"></path>
        <path d="M3490 8016 c0 -8 9 -84 20 -168 11 -84 25 -193 31 -243 6 -49 15 -121 21 -158 l11 -68 155 -132 c85 -73 183 -157 217 -187 301 -261 419 -366 554 -489 161 -147 224 -181 332 -181 101 0 141 24 371 225 57 49 155 135 218 190 63 55 147 127 185 159 39 33 167 142 285 242 l216 183 22 188 c13 103 27 220 32 258 5 39 12 99 16 134 l6 63 -258 -8 c-332 -11 -1455 -11 -2006 -1 -386 8 -428 7 -428 -7z m1595 -440 c73 -19 113 -42 164 -96 41 -43 128 -186 118 -196 -2 -2 -19 5 -38 15 -29 15 -144 54 -244 81 -87 24 -183 32 -362 28 -185 -3 -192 -2 -170 15 34 27 167 104 212 123 97 41 231 54 320 30z"></path>
    </g>
    <g fill="oklch(0.81 0.1337 62.92)">
        <path d="M4555 13746 c-6 -7 -39 -48 -75 -91 -96 -114 -100 -123 -84 -209 41 -212 131 -417 285 -646 78 -117 92 -130 137 -130 20 0 42 4 49 8 8 5 15 49 19 117 14 236 -48 458 -225 810 -42 82 -81 150 -86 152 -6 2 -15 -3 -20 -11z"></path>
        <path d="M5281 13597 c-28 -34 -103 -204 -141 -317 -38 -116 -40 -128 -30 -170 8 -29 11 -116 8 -245 l-3 -200 46 -3 c43 -3 48 -1 81 40 160 197 253 427 259 638 l2 65 -74 75 c-118 119 -135 132 -148 117z"></path>
        <path d="M4851 12430 c-41 -5 -80 -15 -88 -23 -16 -16 -63 -193 -63 -238 0 -35 30 -53 74 -45 17 3 85 8 151 11 66 3 148 10 183 16 74 13 77 20 70 143 -7 103 -17 123 -65 130 -78 11 -190 14 -262 6z"></path>
    </g>
</svg>
